<svg width="16" height="16" viewBox="0 0 16 16" fill="none" xmlns="http://www.w3.org/2000/svg">
<path d="M5.0001 14.0002C4.2191 14.7822 3.2811 14.2822 2.5001 13.5002C1.7191 12.7202 1.2191 11.7811 2.0001 11.0001L4.5001 8.50015C5.2811 7.72015 6.2191 8.21915 7.0001 9.00015C7.7811 9.78115 8.2811 10.7191 7.5001 11.5001L5.0001 14.0002Z" stroke="#0D2E4E" stroke-miterlimit="10"/>
<path d="M11.5001 7.50015C10.7191 8.28215 9.7811 7.78215 9.0001 7.00015C8.2191 6.22015 7.7191 5.28115 8.5001 4.50015L11.0001 2.00015C11.7811 1.22015 12.7191 1.71915 13.5001 2.50015C14.2811 3.28115 14.7811 4.21915 14.0001 5.00015L11.5001 7.50015Z" stroke="#0D2E4E" stroke-miterlimit="10"/>
<path d="M5.5 10.5L10.5 5.5" stroke="#0D2E4E" stroke-miterlimit="10"/>
</svg>
